# xmcd CD database file
#
# Track frame offsets:
#	150
#	32835
#	49154
#	69029
#	87199
#	109057
#	124357
#	156205
#	172715
#	194423
#
# Disc length: 2961 seconds
#
# Revision: 0
# Processed by: cddbd v1.5.2PL0 Copyright (c) Steve Scherf et al.
# Submitted via: CDex 1.79
#
DISCID=7c0b8f0a
DTITLE=Various Performers - This is Venus Jazz 80 Gold Discs from 2007 to 2010  Vol. 4 [CD1]
DYEAR=2013
DGENRE=Jazz
TTITLE0=Sugar - Eric Alexander Quartet
TTITLE1=You'd Be So Nice To Come Home To - Nicki Parrott
TTITLE2=Autumn Leaves - Ted Rosenthal Trio
TTITLE3=My Funny Valentine - Renato Sellani Trio
TTITLE4=And This Is My Beloved - Steve Kuhn Trio
TTITLE5=Amapola - Renato Sellani and Danilo Rea
TTITLE6=You'll Be Mine Tonight - Eric Alexander Quartet
TTITLE7=Easy Living - Eddie Higgins
TTITLE8=You Only Live Twice - Tessa Souter
TTITLE9=April In Torino - Eddie Higgins Quintet Featuring Scott Hamilton and Ken Peplowski
EXTD=YEAR: 2013
EXTT0=
EXTT1=
EXTT2=
EXTT3=
EXTT4=
EXTT5=
EXTT6=
EXTT7=
EXTT8=
EXTT9=
PLAYORDER=
